HIERARCHY
ROOT Pelvis
{
	OFFSET 0.000000 0.000000 0.000000
	CHANNELS 6 Xposition Yposition Zposition Xrotation Yrotation Zrotation
	JOINT LeftUpLeg_virtual
	{
		OFFSET 0.000000 0.000000 0.000000
		CHANNELS 3 Xrotation Yrotation Zrotation
		JOINT LeftUpLeg
		{
			OFFSET 8.479700 -4.795502 -0.379100
			CHANNELS 3 Xrotation Yrotation Zrotation
			JOINT LeftLeg
			{
				OFFSET 0.024144 -32.555107 0.112900
				CHANNELS 3 Xrotation Yrotation Zrotation
				JOINT LeftFoot
				{
					OFFSET -0.024144 -32.638630 -3.012600
					CHANNELS 3 Xrotation Yrotation Zrotation
					JOINT LeftToeBase
					{
						OFFSET 0.970200 -13.225400 11.864200
						CHANNELS 3 Xrotation Yrotation Zrotation
						End Site
						{
							OFFSET 0 0 0
						}
					}
				}
			}
		}
	}
	JOINT RightUpLeg_virtual
	{
		OFFSET 0.000000 0.000000 0.000000
		CHANNELS 3 Xrotation Yrotation Zrotation
		JOINT RightUpLeg
		{
			OFFSET -8.479700 -4.795502 -0.379100
			CHANNELS 3 Xrotation Yrotation Zrotation
			JOINT RightLeg
			{
				OFFSET -0.023144 -32.555092 0.112900
				CHANNELS 3 Xrotation Yrotation Zrotation
				JOINT RightFoot
				{
					OFFSET 0.023144 -32.638641 -3.012700
					CHANNELS 3 Xrotation Yrotation Zrotation
					JOINT RightToeBase
					{
						OFFSET -0.970200 -13.225400 11.864200
						CHANNELS 3 Xrotation Yrotation Zrotation
						End Site
						{
							OFFSET 0 0 0
						}
					}
				}
			}
		}
	}
	JOINT Hips_virtual
	{
		OFFSET 0.000000 0.000000 0.000000
		CHANNELS 3 Xrotation Yrotation Zrotation
		JOINT Hips
		{
			OFFSET -0.000000 -0.000000 -0.000000
			CHANNELS 3 Xrotation Yrotation Zrotation
			JOINT Spine
			{
				OFFSET 0.000000 7.722000 1.166200
				CHANNELS 3 Xrotation Yrotation Zrotation
				JOINT Spine1
				{
					OFFSET 0.000000 12.024101 0.248800
					CHANNELS 3 Xrotation Yrotation Zrotation
					JOINT Spine2
					{
						OFFSET 0.000000 11.502998 -0.491200
						CHANNELS 3 Xrotation Yrotation Zrotation
						JOINT Neck_virtual
						{
							OFFSET 0.000000 0.000000 0.000000
							CHANNELS 3 Xrotation Yrotation Zrotation
							JOINT Neck
							{
								OFFSET 0.000000 18.430702 -3.123100
								CHANNELS 3 Xrotation Yrotation Zrotation
								JOINT Head
								{
									OFFSET 0.000000 9.051102 1.034000
									CHANNELS 3 Xrotation Yrotation Zrotation
									End Site
									{
										OFFSET 0 0 0
									}
								}
							}
						}
						JOINT LeftShoulder_virtual
						{
							OFFSET 0.000000 0.000000 0.000000
							CHANNELS 3 Xrotation Yrotation Zrotation
							JOINT LeftShoulder
							{
								OFFSET 6.197800 13.665199 -4.064700
								CHANNELS 3 Xrotation Yrotation Zrotation
								JOINT LeftArm
								{
									OFFSET 7.778100 -0.187103 -1.709300
									CHANNELS 3 Xrotation Yrotation Zrotation
									JOINT LeftForeArm
									{
										OFFSET 22.049376 0.000000 0.000000
										CHANNELS 3 Xrotation Yrotation Zrotation
										JOINT LeftHand
										{
											OFFSET 23.009392 0.000000 0.000000
											CHANNELS 3 Xrotation Yrotation Zrotation
											End Site
											{
												OFFSET 0 0 0
											}
										}
									}
								}
							}
						}
						JOINT RightShoulder_virtual
						{
							OFFSET 0.000000 0.000000 0.000000
							CHANNELS 3 Xrotation Yrotation Zrotation
							JOINT RightShoulder
							{
								OFFSET -6.197800 13.665199 -4.064700
								CHANNELS 3 Xrotation Yrotation Zrotation
								JOINT RightArm
								{
									OFFSET -7.778100 -0.187103 -1.709300
									CHANNELS 3 Xrotation Yrotation Zrotation
									JOINT RightForeArm
									{
										OFFSET -22.049376 0.000000 0.000000
										CHANNELS 3 Xrotation Yrotation Zrotation
										JOINT RightHand
										{
											OFFSET -23.009392 0.000000 0.000000
											CHANNELS 3 Xrotation Yrotation Zrotation
											End Site
											{
												OFFSET 0 0 0
											}
										}
									}
								}
							}
						}
					}
				}
			}
		}
	}
}
MOTION
Frames: 12
Frame Time: 0.03333333
-102.822556 32.245560 1.783089 0.000000 0.000000 0.000000 4.350139 1.670154 -43.078686 -110.468768 -2.062008 8.976352 27.007703 -2.090106 3.101298 22.128006 -14.803745 37.847588 0.000000 0.000000 0.000000 4.350139 1.670154 -43.078686 -107.540379 -15.024475 -29.268221 128.114678 8.575834 0.277275 9.813203 30.039107 2.586995 0.000000 0.000000 0.000000 4.350139 1.670154 -43.078686 0.000000 0.000000 0.000001 26.963425 -1.318062 -11.000338 4.579534 1.205239 -2.831986 0.000000 0.000000 0.000000 4.490625 1.286408 -2.943293 -2.042151 1.139530 0.937738 0.000000 0.000000 0.000000 4.490625 1.286408 -2.943293 -1.373410 -20.809898 -17.189984 -48.855319 35.869080 -5.133199 0.000010 -67.519562 0.000010 0.000000 0.000000 0.000000 4.490625 1.286408 -2.943293 0.401278 16.298366 -0.998252 -40.005234 -32.703953 -10.775254 -0.000005 46.721537 0.000015 0.000000 0.000000 0.000000 
-102.230530 33.199207 0.795267 0.000000 0.000000 0.000000 4.109922 1.422099 -43.961628 -107.915049 -1.747514 9.494164 22.354007 -2.207837 2.906239 26.452074 -13.285357 36.543930 0.000000 0.000000 0.000000 4.109922 1.422099 -43.961628 -105.607313 -16.850031 -27.968318 125.319300 8.270687 0.129928 8.613044 29.969883 4.251045 0.000000 0.000000 0.000000 4.109922 1.422099 -43.961628 0.000000 0.000000 -0.000002 26.462349 -1.944107 -11.577005 4.544305 1.067057 -3.000547 0.000000 0.000000 0.000000 4.469499 1.152596 -3.102251 -2.049342 1.250607 0.923232 0.000000 0.000000 0.000000 4.469499 1.152596 -3.102251 -0.738568 -20.006915 -16.433094 -50.129251 35.122270 -5.603048 -0.000002 -67.864302 0.000011 0.000000 0.000000 0.000000 4.469499 1.152596 -3.102251 0.572100 17.177629 -1.647726 -40.220692 -36.620551 -13.906568 0.000007 47.792849 -0.000021 0.000000 0.000000 0.000000 
-101.703804 34.323238 -0.039812 0.000000 0.000000 0.000000 4.726130 1.223533 -44.805153 -108.620287 -1.855395 9.146281 24.860254 -1.218731 2.716890 25.431373 -12.825914 37.036219 0.000000 0.000000 0.000000 4.726130 1.223533 -44.805153 -103.942768 -18.562882 -26.693004 122.600748 8.157017 0.045606 6.717611 29.881494 5.852712 0.000000 0.000000 0.000000 4.726130 1.223533 -44.805153 0.000000 0.000000 0.000000 25.930449 -2.721630 -11.843536 4.488209 0.843237 -3.085112 0.000000 0.000000 0.000000 4.437025 0.931093 -3.173847 -2.023573 1.363336 0.939934 0.000000 0.000000 0.000000 4.437025 0.931093 -3.173847 -0.122288 -19.220887 -15.638242 -51.499442 33.851633 -6.175591 0.000010 -67.064958 -0.000001 0.000000 0.000000 0.000000 4.437025 0.931093 -3.173847 0.605462 17.139993 -2.151149 -40.578492 -39.839305 -15.876107 -0.000014 48.762455 0.000021 0.000000 0.000000 0.000000 
-101.222061 35.682751 -0.798347 0.000000 0.000000 0.000000 5.748108 0.999730 -45.932230 -111.616144 -2.434618 8.684784 32.984602 0.260495 1.926843 20.367184 -13.050215 39.596089 0.000000 0.000000 0.000000 5.748108 0.999730 -45.932230 -102.161448 -20.680361 -25.223079 119.609617 8.166526 0.046628 4.590772 29.782538 7.215033 0.000000 0.000000 0.000000 5.748108 0.999730 -45.932230 0.000000 0.000000 -0.000003 25.489489 -3.591573 -11.818030 4.429973 0.562700 -3.087443 0.000000 0.000000 0.000000 4.399102 0.647807 -3.172090 -1.978522 1.469748 0.973260 0.000000 0.000000 0.000000 4.399102 0.647807 -3.172090 0.465877 -18.467177 -14.809588 -53.117329 32.371036 -6.476314 -0.000007 -65.498236 0.000000 0.000000 0.000000 0.000000 4.399102 0.647807 -3.172090 0.420655 16.309585 -2.316467 -40.918560 -42.271153 -17.103682 0.000003 49.709799 0.000005 0.000000 0.000000 0.000000 
-100.742729 37.155239 -1.506037 0.000000 0.000000 0.000000 6.837834 0.666868 -47.420009 -116.194413 -3.477841 8.372784 44.276773 3.126219 0.953130 15.418742 -13.017324 40.966307 0.000000 0.000000 0.000000 6.837834 0.666868 -47.420009 -100.225492 -23.027047 -23.623411 116.105949 7.911869 0.097672 3.197740 29.304729 8.689973 0.000000 0.000000 0.000000 6.837834 0.666868 -47.420009 0.000000 0.000000 0.000001 25.198854 -4.464852 -11.571940 4.380750 0.257268 -3.026147 0.000000 0.000000 0.000000 4.361404 0.331584 -3.128188 -1.937255 1.565078 1.011139 0.000000 0.000000 0.000000 4.361404 0.331584 -3.128188 1.018442 -17.762522 -13.948081 -54.948530 31.110935 -6.401430 -0.000013 -63.876127 -0.000009 0.000000 0.000000 0.000000 4.361404 0.331584 -3.128188 0.087488 15.029539 -2.189397 -41.233473 -44.225103 -18.026860 0.000016 50.705866 -0.000023 0.000000 0.000000 0.000000 
-100.285736 38.660244 -2.231131 0.000000 0.000000 0.000000 7.977803 0.237899 -49.146554 -120.397302 -4.604474 8.242276 55.268795 6.037958 -0.135788 11.054443 -12.479128 40.623728 0.000000 0.000000 0.000000 7.977803 0.237899 -49.146554 -98.391020 -25.544320 -21.982288 112.249139 7.642133 0.104081 2.513215 28.665279 10.073200 0.000000 0.000000 0.000000 7.977803 0.237899 -49.146554 -0.000000 0.000001 0.000003 25.027679 -5.353416 -11.190620 4.340292 -0.053012 -2.926350 0.000000 0.000000 0.000000 4.326351 0.001594 -3.071845 -1.907598 1.651347 1.046725 0.000000 0.000000 0.000000 4.326351 0.001594 -3.071845 1.528352 -17.124225 -13.055628 -56.910953 30.147683 -5.988684 -0.000006 -62.567326 0.000011 0.000000 0.000000 0.000000 4.326351 0.001594 -3.071845 -0.280794 13.602711 -1.925106 -41.602348 -46.076548 -18.868497 0.000003 51.752135 -0.000004 0.000000 0.000000 0.000000 
-99.850533 40.136379 -2.973623 0.000000 0.000000 0.000000 9.177037 -0.235427 -50.854600 -124.016523 -5.885461 8.450366 65.853918 8.687147 -1.357073 7.175281 -11.303040 37.896673 0.000000 0.000000 0.000000 9.177037 -0.235427 -50.854600 -96.878105 -28.075255 -20.448806 108.349770 7.369336 0.015811 2.463086 28.013411 11.160984 0.000000 0.000000 0.000000 9.177037 -0.235427 -50.854600 0.000000 0.000000 0.000001 24.915215 -6.244337 -10.747693 4.303734 -0.361412 -2.808358 0.000000 0.000000 0.000000 4.294043 -0.333745 -3.018385 -1.884771 1.733747 1.076840 0.000000 0.000000 0.000000 4.294043 -0.333745 -3.018385 1.988458 -16.570654 -12.135617 -58.872979 29.283398 -5.449991 0.000012 -61.316985 0.000021 0.000000 0.000000 0.000000 4.294043 -0.333745 -3.018385 -0.611660 12.188416 -1.652846 -42.107894 -48.111607 -19.647292 -0.000004 52.791943 -0.000003 0.000000 0.000000 0.000000 
-99.431862 41.630447 -3.738815 0.000000 0.000000 0.000000 10.452640 -0.732915 -52.532710 -126.760770 -7.586486 9.229489 75.826834 10.529501 -2.687764 3.854323 -9.304915 32.166895 0.000000 0.000000 0.000000 10.452640 -0.732915 -52.532710 -95.605539 -30.591601 -18.957065 104.442499 6.828203 -0.014915 2.979549 27.579681 11.862105 0.000000 0.000000 0.000000 10.452640 -0.732915 -52.532710 -0.000000 -0.000001 -0.000002 24.830434 -7.137135 -10.283063 4.268274 -0.667219 -2.683780 0.000000 0.000000 0.000000 4.264232 -0.670725 -2.969957 -1.865156 1.816233 1.098608 0.000000 0.000000 0.000000 4.264232 -0.670725 -2.969957 2.392743 -16.120995 -11.191422 -60.835088 28.365554 -4.762358 0.000015 -59.974313 0.000013 0.000000 0.000000 0.000000 4.264232 -0.670725 -2.969957 -0.885410 10.812403 -1.433141 -42.789629 -50.514378 -20.264739 -0.000012 53.767963 0.000015 0.000000 0.000000 0.000000 
-99.033775 43.181252 -4.525297 0.000000 0.000000 0.000000 11.809040 -1.245737 -54.245144 -128.067604 -10.007551 10.784795 84.823061 10.564242 -4.105686 0.952668 -6.140690 23.499621 0.000000 0.000000 0.000000 11.809040 -1.245737 -54.245144 -94.509915 -32.847978 -17.433713 100.401274 6.114560 0.426420 4.413514 27.428575 11.989194 0.000000 0.000000 0.000000 11.809040 -1.245737 -54.245144 0.000001 -0.000000 -0.000002 24.781087 -8.034732 -9.812250 4.234747 -0.968877 -2.557994 0.000000 0.000000 0.000000 4.237353 -1.004924 -2.923615 -1.853121 1.899592 1.107992 0.000000 0.000000 0.000000 4.237353 -1.004924 -2.923615 2.738847 -15.791893 -10.224288 -62.826095 27.342419 -3.841263 0.000007 -58.587922 -0.000002 0.000000 0.000000 0.000000 4.237353 -1.004924 -2.923615 -1.116355 9.413847 -1.273668 -43.582990 -53.343788 -20.543951 -0.000015 54.681490 0.000024 0.000000 0.000000 0.000000 
-98.693222 44.720150 -5.294500 0.000000 0.000000 0.000000 13.276797 -1.715995 -55.845440 -127.485918 -11.204454 11.301286 92.163492 10.539136 -5.510147 -2.996674 -4.136945 21.685815 0.000000 0.000000 0.000000 13.276797 -1.715995 -55.845440 -94.307325 -34.046850 -16.493488 95.445371 6.557589 1.803371 9.441023 27.533532 11.003716 0.000000 0.000000 0.000000 13.276797 -1.715995 -55.845440 0.000000 0.000000 -0.000001 24.789070 -8.973112 -9.343219 4.205505 -1.261787 -2.434694 0.000000 0.000000 0.000000 4.214189 -1.329377 -2.877533 -1.858502 1.982570 1.100686 0.000000 0.000000 0.000000 4.214189 -1.329377 -2.877533 3.029246 -15.594206 -9.234373 -64.766832 26.176114 -2.837090 -0.000003 -57.078177 -0.000004 0.000000 0.000000 0.000000 4.214189 -1.329377 -2.877533 -1.325206 7.928361 -1.159174 -44.246730 -56.483376 -20.238880 0.000011 55.596681 -0.000012 0.000000 0.000000 0.000000 
-98.409454 46.203255 -6.049276 0.000000 0.000000 0.000000 14.845385 -2.119512 -57.207691 -125.376988 -11.292867 11.185627 98.025557 10.702084 -6.821614 -8.002603 -3.283688 24.085537 0.000000 0.000000 0.000000 14.845385 -2.119512 -57.207691 -94.686817 -33.876533 -16.310813 88.738480 8.480508 4.181886 18.356101 27.401869 10.651121 0.000000 0.000000 0.000000 14.845385 -2.119512 -57.207691 0.000000 0.000000 -0.000002 24.868717 -9.924835 -8.902788 4.182161 -1.539281 -2.319564 0.000000 0.000000 0.000000 4.195725 -1.635241 -2.832758 -1.892514 2.064412 1.070982 0.000000 0.000000 0.000000 4.195725 -1.635241 -2.832758 3.267921 -15.537137 -8.223756 -66.595116 24.831134 -1.907854 -0.000008 -55.373867 0.000006 0.000000 0.000000 0.000000 4.195725 -1.635241 -2.832758 -1.510220 6.397041 -1.074639 -44.367905 -59.677439 -19.070178 -0.000007 56.553809 0.000029 0.000000 0.000000 0.000000 
-98.150818 47.599506 -6.829908 0.000000 0.000000 0.000000 16.464261 -2.453904 -58.226598 -122.551940 -11.531273 11.456359 102.684798 9.735115 -7.980215 -11.521510 -1.627970 24.834315 0.000000 0.000000 0.000000 16.464261 -2.453904 -58.226598 -94.316586 -32.502941 -16.643405 79.356102 9.666607 6.848743 29.920303 27.563928 16.100446 0.000000 0.000000 0.000000 16.464261 -2.453904 -58.226598 -0.000000 -0.000001 -0.000003 25.026906 -10.812837 -8.540793 4.165100 -1.794358 -2.222877 0.000000 0.000000 0.000000 4.182997 -1.913209 -2.791854 -1.967065 2.147594 1.007437 0.000000 0.000000 0.000000 4.182997 -1.913209 -2.791854 3.452491 -15.644381 -7.199463 -68.283273 23.300973 -1.180867 0.000022 -53.459679 0.000006 0.000000 0.000000 0.000000 4.182997 -1.913209 -2.791854 -1.640241 5.009691 -1.013752 -43.524974 -62.670729 -16.827909 0.000005 57.462955 -0.000006 0.000000 0.000000 0.000000 
